<svg id="Capa_1" enable-background="new 0 0 496.475 496.475" height="512" viewBox="0 0 496.475 496.475" width="512" xmlns="http://www.w3.org/2000/svg"><g><g id="Page-1_20_"><g id="_x30_21---Racing-Drone"><path id="Shape_148_" d="m355.244 157.985c20.831 21.014 51.313 29.277 79.905 21.661 28.592-7.617 50.924-29.949 58.541-58.541s-.646-59.074-21.66-79.905c-20.415-20.417-50.011-28.69-78.054-21.817s-50.46 27.893-59.121 55.436h-52.298l-4.41-24.774h17.557c5.087.002 9.891-2.341 13.022-6.349 3.131-4.009 4.241-9.237 3.007-14.172l-4.129-16.516c-1.838-7.355-8.448-12.514-16.029-12.511h-86.198c-7.581-.003-14.19 5.156-16.029 12.511l-4.129 16.516c-1.234 4.935-.124 10.163 3.007 14.172s7.935 6.351 13.022 6.349h17.557l-4.41 24.774h-52.373c-8.648-27.53-31.048-48.543-59.074-55.416s-57.606 1.392-78.01 21.797c-21.304 20.768-29.79 51.391-22.213 80.163s30.045 51.243 58.816 58.824 59.395-.9 80.166-22.202c9.396-9.394 16.368-20.932 20.315-33.619h27.153l-21.628 129.47c-.781 4.79.584 9.682 3.733 13.376 3.149 3.693 7.764 5.814 12.618 5.8h7.82l11.264 82.581h-40.96c-8.62-27.553-31.022-48.592-59.061-55.468s-57.633 1.411-78.023 21.85c-31.556 32.361-31.232 84.079.727 116.042s83.676 32.295 116.042.743c9.396-9.394 16.368-20.932 20.315-33.619h47.715l4.501 33.032h-17.978c-6.761-.026-12.847 4.094-15.335 10.38l-9.91 24.774c-2.036 5.089-1.415 10.856 1.657 15.395 3.073 4.539 8.197 7.257 13.678 7.257h124.251c5.481 0 10.605-2.718 13.678-7.257s3.694-10.306 1.657-15.395l-9.91-24.774c-2.488-6.287-8.574-10.406-15.335-10.38h-17.978l4.501-33.032h47.641c12.231 38.891 51.012 63.037 91.309 56.85s70.048-40.855 70.048-81.624-29.752-75.437-70.048-81.624c-40.297-6.187-79.078 17.959-91.309 56.85h-40.886l11.264-82.581h7.82c4.859.016 9.478-2.108 12.629-5.808 3.15-3.699 4.512-8.598 3.722-13.392l-21.628-129.445h27.078c3.978 12.69 10.974 24.227 20.39 33.618zm17.92-6.243 29.853-29.853c6.695 3.304 14.545 3.304 21.24 0l29.845 29.853c-23.789 18.545-57.14 18.545-80.929 0zm46.311-57.988c3.224 3.225 3.224 8.452 0 11.677-3.266 3.123-8.411 3.123-11.677 0-2.147-2.073-3.008-5.144-2.252-8.031s3.011-5.142 5.898-5.898c2.888-.756 5.958.105 8.031 2.252zm60.227 5.838c.022 14.666-4.878 28.914-13.915 40.465l-29.853-29.845c3.304-6.695 3.304-14.545 0-21.24l29.853-29.845c9.037 11.551 13.937 25.8 13.915 40.465zm-25.6-52.149-29.935 29.935c-6.703-2.982-14.355-2.982-21.058 0l-29.935-29.935c23.788-18.545 57.138-18.545 80.928 0zm-92.615 11.685 29.853 29.845c-3.304 6.695-3.304 14.545 0 21.24l-29.853 29.845c-18.544-23.79-18.544-57.141 0-80.93zm-156.11-42.116h86.198l4.129 16.516h-94.456zm55.998 33.032 10.281 57.806h-46.361l10.281-57.806zm-137.596-2.601-29.936 29.935c-6.703-2.982-14.355-2.982-21.058 0l-29.935-29.935c23.789-18.545 57.14-18.545 80.929 0zm-46.303 57.988c-2.147-2.073-3.008-5.144-2.252-8.031s3.011-5.142 5.898-5.898 5.958.105 8.031 2.252c3.224 3.225 3.224 8.452 0 11.677-3.266 3.123-8.411 3.123-11.677 0zm-60.226-5.839c-.022-14.666 4.878-28.914 13.915-40.465l29.853 29.845c-3.304 6.695-3.304 14.545 0 21.24l-29.853 29.845c-9.038-11.55-13.937-25.799-13.915-40.465zm25.6 52.15 29.845-29.853c6.695 3.304 14.545 3.304 21.24 0l29.845 29.853c-23.79 18.545-57.141 18.545-80.93 0zm92.614-11.685-29.853-29.845c3.304-6.695 3.304-14.545 0-21.24l29.853-29.845c18.43 23.829 18.43 57.102 0 80.93zm29.96-48.723h46.039l-2.94 16.516h-43.099c.554-5.491.554-11.024 0-16.516zm-41.645 236.883-29.935 29.935c-6.703-2.982-14.355-2.982-21.058 0l-29.936-29.935c23.8-18.512 57.129-18.512 80.929 0zm-46.303 57.988c-2.362-2.362-3.069-5.914-1.791-9s4.289-5.098 7.63-5.098 6.352 2.012 7.63 5.098.571 6.638-1.791 9c-3.267 3.123-8.412 3.123-11.678 0zm-60.226-5.838c-.022-14.666 4.878-28.914 13.915-40.465l29.853 29.845c-3.304 6.695-3.304 14.545 0 21.24l-29.853 29.845c-9.038-11.551-13.937-25.8-13.915-40.465zm25.6 52.149 29.845-29.853c6.695 3.304 14.545 3.304 21.24 0l29.845 29.853c-23.829 18.431-57.102 18.431-80.93 0zm92.614-11.685-29.853-29.845c3.304-6.695 3.304-14.545 0-21.24l29.853-29.845c18.43 23.83 18.43 57.102 0 80.93zm29.96-32.206c.553-5.491.553-11.025 0-16.516h39.812l2.246 16.516zm135.267 66.064 9.91 24.774h-124.251l9.91-24.774zm72.481-22.173 29.845-29.853c6.695 3.304 14.545 3.304 21.24 0l29.845 29.853c-23.829 18.431-57.101 18.431-80.93 0zm46.312-57.996c1.551 1.549 2.422 3.651 2.422 5.843s-.871 4.294-2.422 5.843c-3.266 3.123-8.411 3.123-11.677 0-2.087-2.086-2.903-5.127-2.141-7.978.763-2.851 2.988-5.078 5.838-5.843 2.851-.765 5.892.049 7.98 2.135zm60.218 5.847c.022 14.666-4.878 28.914-13.915 40.465l-29.853-29.845c3.304-6.695 3.304-14.545 0-21.24l29.853-29.845c9.037 11.55 13.937 25.799 13.915 40.465zm-25.6-52.15-29.935 29.935c-6.703-2.982-14.355-2.982-21.058 0l-29.935-29.935c23.799-18.512 57.127-18.512 80.928 0zm-92.615 11.685 29.853 29.845c-3.304 6.695-3.304 14.545 0 21.24l-29.853 29.845c-18.544-23.79-18.544-57.141 0-80.93zm-30.026 32.207c-.264 2.725-.405 5.483-.405 8.258s.14 5.533.405 8.258h-41.992l2.246-16.516zm-65.42 66.064h-35.13l-22.52-165.161h8.861l7.185 28.746c2.75 11.038 12.664 18.785 24.039 18.785s21.289-7.747 24.039-18.785l7.185-28.746h8.861zm-1.049-174.435-8.506 34.048c-.921 3.674-4.223 6.25-8.01 6.25s-7.09-2.577-8.01-6.25l-8.506-34.048v-73.307c0-1.016.347-24.774 16.516-24.774s16.516 23.783 16.516 24.774zm33.032-7.242h-16.516v-66.065c0-14.278-6.904-41.29-33.032-41.29-26.129 0-33.032 27.012-33.032 41.29v66.065h-16.516-.107-14.955l22.082-132.129h85.058l22.049 132.129zm-7.019-148.645h-2.577l-2.94-16.516h45.973c-.264 2.725-.405 5.483-.405 8.258s.14 5.533.405 8.258z"/></g></g></g></svg>