<svg width="429" height="449" viewBox="0 0 429 449" fill="none" xmlns="http://www.w3.org/2000/svg">
<g clip-path="url(#clip0)">
<circle cx="213.875" cy="180.605" r="53.4687" fill="black"/>
<path d="M355.655 38.8251C374.274 57.444 389.043 79.5477 399.119 103.874C409.196 128.201 414.382 154.274 414.382 180.605C414.382 206.936 409.196 233.01 399.119 257.336C389.043 281.663 374.274 303.767 355.655 322.386" stroke="black" stroke-width="26.7343" stroke-linecap="round"/>
<path d="M317.847 76.6332C331.501 90.287 342.331 106.496 349.721 124.336C357.11 142.176 360.913 161.296 360.913 180.605C360.913 199.915 357.11 219.035 349.721 236.875C342.331 254.714 331.501 270.924 317.847 284.577" stroke="black" stroke-width="26.7343" stroke-linecap="round"/>
<path d="M280.039 114.441C288.728 123.13 295.62 133.445 300.322 144.798C305.025 156.15 307.445 168.317 307.445 180.605C307.445 192.893 305.025 205.061 300.322 216.413C295.62 227.766 288.727 238.081 280.039 246.769" stroke="black" stroke-width="26.7343" stroke-linecap="round"/>
<path d="M72.0944 322.385C53.4756 303.767 38.7063 281.663 28.6299 257.336C18.5534 233.009 13.3671 206.936 13.3672 180.605C13.3672 154.274 18.5535 128.201 28.63 103.874C38.7064 79.5475 53.4757 57.4438 72.0946 38.8249" stroke="black" stroke-width="26.7343" stroke-linecap="round"/>
<path d="M109.902 284.577C96.2486 270.924 85.4178 254.714 78.0285 236.875C70.6391 219.035 66.8358 199.915 66.8358 180.605C66.8358 161.296 70.6391 142.175 78.0285 124.336C85.4179 106.496 96.2488 90.2868 109.903 76.633" stroke="black" stroke-width="26.7343" stroke-linecap="round"/>
<path d="M147.711 246.769C139.022 238.081 132.129 227.765 127.427 216.413C122.725 205.06 120.305 192.893 120.305 180.605C120.305 168.317 122.725 156.15 127.427 144.797C132.129 133.445 139.022 123.13 147.711 114.441" stroke="black" stroke-width="26.7343" stroke-linecap="round"/>
<line x1="213.875" y1="193.972" x2="213.875" y2="434.581" stroke="black" stroke-width="26.7343" stroke-linecap="round" stroke-linejoin="round"/>
</g>
<defs>
<clipPath id="clip0">
<rect width="429" height="448.699" fill="white"/>
</clipPath>
</defs>
</svg>
