<svg width="429" height="449" viewBox="0 0 429 449" fill="none" xmlns="http://www.w3.org/2000/svg">
<g clip-path="url(#clip0)">
<circle cx="213.875" cy="180.605" r="53.4687" fill="black"/>
<path d="M280.039 114.441C288.728 123.13 295.62 133.445 300.322 144.798C305.025 156.15 307.445 168.317 307.445 180.605C307.445 192.893 305.025 205.061 300.322 216.413C295.62 227.766 288.727 238.081 280.039 246.769" stroke="black" stroke-width="26.7343" stroke-linecap="round"/>
<path d="M147.711 246.769C139.022 238.081 132.129 227.765 127.427 216.413C122.725 205.06 120.305 192.893 120.305 180.605C120.305 168.317 122.725 156.15 127.427 144.797C132.129 133.445 139.022 123.13 147.711 114.441" stroke="black" stroke-width="26.7343" stroke-linecap="round"/>
<line x1="213.875" y1="193.972" x2="213.875" y2="434.581" stroke="black" stroke-width="26.7343" stroke-linecap="round" stroke-linejoin="round"/>
</g>
<defs>
<clipPath id="clip0">
<rect width="429" height="448.699" fill="white"/>
</clipPath>
</defs>
</svg>
