<?xml version="1.0" encoding="iso-8859-1"?>
<!-- Generator: Adobe Illustrator 19.0.0, SVG Export Plug-In . SVG Version: 6.00 Build 0)  -->
<svg version="1.1" id="Capa_1" xmlns="http://www.w3.org/2000/svg" xmlns:xlink="http://www.w3.org/1999/xlink" x="0px" y="0px"
	 viewBox="0 0 480 480" style="enable-background:new 0 0 480 480;" xml:space="preserve">
<g>
	<g>
		<path d="M192,60.029h-32.552c-4.354-35.041-36.291-59.918-71.332-55.564c-29.06,3.611-51.952,26.503-55.564,55.564H0v416h480v-416
			H192z M192,188.029h112v64H192V188.029z M304,268.029v72h-28c-19.882,0-36-16.118-36-36s16.118-36,36-36H304z M192,340.029v-72
			h46.568c-19.918,20.64-19.332,53.519,1.309,73.437c9.696,9.357,22.649,14.578,36.123,14.563h28v72H192V340.029z M48,68.029
			c0.031-26.497,21.503-47.969,48-48c26.497,0.031,47.969,21.503,48,48v0.8c0.035,12.738-5.026,24.96-14.056,33.944L96,136.717
			l-33.944-33.944C53.026,93.789,47.965,81.567,48,68.829V68.029z M16,76.029h16.432c1.584,14.403,8.045,27.831,18.312,38.056
			L96,159.341l45.256-45.256c10.267-10.225,16.728-23.653,18.312-38.056H176v96H16V76.029z M176,188.029v152h-48
			c-13.255,0-24-10.745-24-24v-128H176z M16,188.029h72v104H16V188.029z M98.8,460.029H16v-152h72v8c0.026,22.08,17.92,39.974,40,40
			h48v72h-32C123.679,428.052,105.574,440.87,98.8,460.029z M464,460.029H116.448c5.672-9.867,16.171-15.964,27.552-16h204
			c28.704-0.035,51.965-23.296,52-52c0-1.352-0.104-2.672-0.2-4h0.2c0-17.673,14.327-32,32-32h32V460.029z M320,428.029v-72h28
			c19.882,0,36,16.118,36,36s-16.118,36-36,36H320z M464,340.029h-32c-16.693,0.026-32.174,8.724-40.88,22.968
			c-9.658-14.352-25.821-22.961-43.12-22.968h-28v-72h88v-16h-88v-64h144V340.029z M464,172.029H320v-48h-16v48H192v-96h272V172.029
			z"/>
	</g>
</g>
<g>
	<g>
		<path d="M96,36.029c-17.673,0-32,14.327-32,32s14.327,32,32,32s32-14.327,32-32S113.673,36.029,96,36.029z M96,84.029
			c-8.837,0-16-7.163-16-16s7.163-16,16-16s16,7.163,16,16S104.837,84.029,96,84.029z"/>
	</g>
</g>
<g>
</g>
<g>
</g>
<g>
</g>
<g>
</g>
<g>
</g>
<g>
</g>
<g>
</g>
<g>
</g>
<g>
</g>
<g>
</g>
<g>
</g>
<g>
</g>
<g>
</g>
<g>
</g>
<g>
</g>
</svg>
