<svg width="240" height="240" viewBox="0 0 240 240" fill="none" xmlns="http://www.w3.org/2000/svg">
<path d="M120 65C77.1979 65 42.5 89.6243 42.5 120H197.5C197.5 89.6243 162.802 65 120 65Z" fill="#6EA3E2"/>
<path d="M120 175C77.1979 175 42.5 150.376 42.5 120H197.5C197.5 150.376 162.802 175 120 175Z" fill="#66411A"/>
<path d="M197 119.383H43V121.383H197V119.383Z" fill="white"/>
<path d="M140 87.3829H100V85.3829H140V87.3829Z" fill="white"/>
<path d="M135 104.383H105V102.383H135V104.383Z" fill="white"/>
<path d="M127.5 112.883H112.5V110.883H127.5V112.883Z" fill="white"/>
<path d="M127.5 95.8829H112.5V93.8829H127.5V95.8829Z" fill="white"/>
<path d="M140 153.383H100V155.383H140V153.383Z" fill="white"/>
<path d="M135 136.383H105V138.383H135V136.383Z" fill="white"/>
<path d="M127.5 127.883H112.5V129.883H127.5V127.883Z" fill="white"/>
<path d="M127.5 144.883H112.5V146.883H127.5V144.883Z" fill="white"/>
<path d="M89.739 105.724H91.3991V101.012L89.695 101.364V100.085L91.3893 99.733H93.1765V105.724H94.8366V107.023H89.739V105.724Z" fill="white"/>
<path d="M100.12 103.371C100.12 102.459 100.034 101.818 99.861 101.447C99.6917 101.073 99.4053 100.885 99.0016 100.885C98.598 100.885 98.3099 101.073 98.1374 101.447C97.9649 101.818 97.8786 102.459 97.8786 103.371C97.8786 104.292 97.9649 104.941 98.1374 105.319C98.3099 105.697 98.598 105.885 99.0016 105.885C99.402 105.885 99.6885 105.697 99.861 105.319C100.034 104.941 100.12 104.292 100.12 103.371ZM102 103.385C102 104.593 101.739 105.526 101.218 106.183C100.698 106.838 99.9587 107.165 99.0016 107.165C98.0414 107.165 97.3008 106.838 96.78 106.183C96.2591 105.526 95.9987 104.593 95.9987 103.385C95.9987 102.174 96.2591 101.242 96.78 100.588C97.3008 99.9299 98.0414 99.6013 99.0016 99.6012C99.9587 99.6013 100.698 99.9299 101.218 100.588C101.739 101.242 102 102.174 102 103.385Z" fill="white"/>
<path d="M86.4482 88.6412H89.6562V90.0231H84.3584V88.6412L87.0195 86.2926C87.2572 86.0777 87.4329 85.8678 87.5469 85.6627C87.6608 85.4576 87.7178 85.2445 87.7178 85.0231C87.7178 84.6813 87.6022 84.4063 87.3711 84.1979C87.1432 83.9896 86.8389 83.8854 86.458 83.8854C86.165 83.8854 85.8444 83.9483 85.4961 84.0758C85.1478 84.1995 84.7751 84.385 84.3779 84.6324V83.0309C84.8011 82.891 85.2194 82.7852 85.6328 82.7135C86.0462 82.6385 86.4515 82.6013 86.8486 82.6012C87.721 82.6013 88.3981 82.7933 88.8799 83.1774C89.3649 83.5615 89.6074 84.0969 89.6074 84.7838C89.6074 85.1809 89.5049 85.5521 89.2998 85.8971C89.0947 86.2389 88.6634 86.6978 88.0059 87.274L86.4482 88.6412Z" fill="white"/>
<path d="M95.1201 86.3707C95.1201 85.4592 95.0338 84.818 94.8613 84.4469C94.6921 84.0726 94.4056 83.8854 94.002 83.8854C93.5983 83.8854 93.3102 84.0726 93.1377 84.4469C92.9652 84.818 92.8789 85.4592 92.8789 86.3707C92.8789 87.2919 92.9652 87.9414 93.1377 88.319C93.3102 88.6966 93.5983 88.8854 94.002 88.8854C94.4023 88.8854 94.6888 88.6966 94.8613 88.319C95.0339 87.9414 95.1201 87.2919 95.1201 86.3707ZM97 86.3854C97 87.5931 96.7396 88.5256 96.2188 89.1832C95.6979 89.8375 94.959 90.1647 94.002 90.1647C93.0417 90.1647 92.3011 89.8375 91.7803 89.1832C91.2594 88.5256 90.999 87.5931 90.999 86.3854C90.999 85.1745 91.2594 84.2418 91.7803 83.5875C92.3011 82.9299 93.0417 82.6013 94.002 82.6012C94.959 82.6013 95.6979 82.9299 96.2188 83.5875C96.7396 84.2418 97 85.1745 97 86.3854Z" fill="white"/>
<path d="M138.044 105.724H139.704V101.012L138 101.364V100.085L139.694 99.733H141.481V105.724H143.142V107.023H138.044V105.724Z" fill="white"/>
<path d="M148.425 103.371C148.425 102.459 148.339 101.818 148.166 101.447C147.997 101.073 147.71 100.885 147.307 100.885C146.903 100.885 146.615 101.073 146.442 101.447C146.27 101.818 146.184 102.459 146.184 103.371C146.184 104.292 146.27 104.941 146.442 105.319C146.615 105.697 146.903 105.885 147.307 105.885C147.707 105.885 147.993 105.697 148.166 105.319C148.339 104.941 148.425 104.292 148.425 103.371ZM150.305 103.385C150.305 104.593 150.044 105.526 149.523 106.183C149.003 106.838 148.264 107.165 147.307 107.165C146.346 107.165 145.606 106.838 145.085 106.183C144.564 105.526 144.304 104.593 144.304 103.385C144.304 102.174 144.564 101.242 145.085 100.588C145.606 99.9299 146.346 99.6013 147.307 99.6012C148.264 99.6013 149.003 99.9299 149.523 100.588C150.044 101.242 150.305 102.174 150.305 103.385Z" fill="white"/>
<path d="M145.09 88.6412H148.298V90.0231H143V88.6412L145.661 86.2926C145.899 86.0777 146.075 85.8678 146.188 85.6627C146.302 85.4576 146.359 85.2445 146.359 85.0231C146.359 84.6813 146.244 84.4063 146.013 84.1979C145.785 83.9896 145.48 83.8854 145.1 83.8854C144.807 83.8854 144.486 83.9483 144.138 84.0758C143.789 84.1995 143.417 84.385 143.02 84.6324V83.0309C143.443 82.891 143.861 82.7852 144.274 82.7135C144.688 82.6385 145.093 82.6013 145.49 82.6012C146.363 82.6013 147.04 82.7933 147.521 83.1774C148.007 83.5615 148.249 84.0969 148.249 84.7838C148.249 85.1809 148.146 85.5521 147.941 85.8971C147.736 86.2389 147.305 86.6978 146.647 87.274L145.09 88.6412Z" fill="white"/>
<path d="M153.762 86.3707C153.762 85.4592 153.675 84.818 153.503 84.4469C153.334 84.0726 153.047 83.8854 152.644 83.8854C152.24 83.8854 151.952 84.0726 151.779 84.4469C151.607 84.818 151.521 85.4592 151.521 86.3707C151.521 87.2919 151.607 87.9414 151.779 88.319C151.952 88.6966 152.24 88.8854 152.644 88.8854C153.044 88.8854 153.33 88.6966 153.503 88.319C153.675 87.9414 153.762 87.2919 153.762 86.3707ZM155.642 86.3854C155.642 87.5931 155.381 88.5256 154.86 89.1832C154.34 89.8375 153.601 90.1647 152.644 90.1647C151.683 90.1647 150.943 89.8375 150.422 89.1832C149.901 88.5256 149.641 87.5931 149.641 86.3854C149.641 85.1745 149.901 84.2418 150.422 83.5875C150.943 82.9299 151.683 82.6013 152.644 82.6012C153.601 82.6013 154.34 82.9299 154.86 83.5875C155.381 84.2418 155.642 85.1745 155.642 86.3854Z" fill="white"/>
<path d="M89.739 139.724H91.3991V135.012L89.695 135.364V134.085L91.3893 133.733H93.1765V139.724H94.8366V141.023H89.739V139.724Z" fill="white"/>
<path d="M100.12 137.371C100.12 136.459 100.034 135.818 99.861 135.447C99.6917 135.073 99.4053 134.885 99.0016 134.885C98.598 134.885 98.3099 135.073 98.1374 135.447C97.9649 135.818 97.8786 136.459 97.8786 137.371C97.8786 138.292 97.9649 138.941 98.1374 139.319C98.3099 139.697 98.598 139.885 99.0016 139.885C99.402 139.885 99.6885 139.697 99.861 139.319C100.034 138.941 100.12 138.292 100.12 137.371ZM102 137.385C102 138.593 101.739 139.526 101.218 140.183C100.698 140.838 99.9587 141.165 99.0016 141.165C98.0414 141.165 97.3008 140.838 96.78 140.183C96.2591 139.526 95.9987 138.593 95.9987 137.385C95.9987 136.175 96.2591 135.242 96.78 134.588C97.3008 133.93 98.0414 133.601 99.0016 133.601C99.9587 133.601 100.698 133.93 101.218 134.588C101.739 135.242 102 136.175 102 137.385Z" fill="white"/>
<path d="M86.4482 156.641H89.6562V158.023H84.3584V156.641L87.0195 154.293C87.2572 154.078 87.4329 153.868 87.5469 153.663C87.6608 153.458 87.7178 153.245 87.7178 153.023C87.7178 152.681 87.6022 152.406 87.3711 152.198C87.1432 151.99 86.8389 151.885 86.458 151.885C86.165 151.885 85.8444 151.948 85.4961 152.076C85.1478 152.2 84.7751 152.385 84.3779 152.633V151.031C84.8011 150.891 85.2194 150.785 85.6328 150.714C86.0462 150.639 86.4515 150.601 86.8486 150.601C87.721 150.601 88.3981 150.793 88.8799 151.177C89.3649 151.562 89.6074 152.097 89.6074 152.784C89.6074 153.181 89.5049 153.552 89.2998 153.897C89.0947 154.239 88.6634 154.698 88.0059 155.274L86.4482 156.641Z" fill="white"/>
<path d="M95.1201 154.371C95.1201 153.459 95.0338 152.818 94.8613 152.447C94.6921 152.073 94.4056 151.885 94.002 151.885C93.5983 151.885 93.3102 152.073 93.1377 152.447C92.9652 152.818 92.8789 153.459 92.8789 154.371C92.8789 155.292 92.9652 155.941 93.1377 156.319C93.3102 156.697 93.5983 156.885 94.002 156.885C94.4023 156.885 94.6888 156.697 94.8613 156.319C95.0339 155.941 95.1201 155.292 95.1201 154.371ZM97 154.385C97 155.593 96.7396 156.526 96.2188 157.183C95.6979 157.838 94.959 158.165 94.002 158.165C93.0417 158.165 92.3011 157.838 91.7803 157.183C91.2594 156.526 90.999 155.593 90.999 154.385C90.999 153.175 91.2594 152.242 91.7803 151.588C92.3011 150.93 93.0417 150.601 94.002 150.601C94.959 150.601 95.6979 150.93 96.2188 151.588C96.7396 152.242 97 153.175 97 154.385Z" fill="white"/>
<path d="M138.044 139.724H139.704V135.012L138 135.364V134.085L139.694 133.733H141.481V139.724H143.142V141.023H138.044V139.724Z" fill="white"/>
<path d="M148.425 137.371C148.425 136.459 148.339 135.818 148.166 135.447C147.997 135.073 147.71 134.885 147.307 134.885C146.903 134.885 146.615 135.073 146.442 135.447C146.27 135.818 146.184 136.459 146.184 137.371C146.184 138.292 146.27 138.941 146.442 139.319C146.615 139.697 146.903 139.885 147.307 139.885C147.707 139.885 147.993 139.697 148.166 139.319C148.339 138.941 148.425 138.292 148.425 137.371ZM150.305 137.385C150.305 138.593 150.044 139.526 149.523 140.183C149.003 140.838 148.264 141.165 147.307 141.165C146.346 141.165 145.606 140.838 145.085 140.183C144.564 139.526 144.304 138.593 144.304 137.385C144.304 136.175 144.564 135.242 145.085 134.588C145.606 133.93 146.346 133.601 147.307 133.601C148.264 133.601 149.003 133.93 149.523 134.588C150.044 135.242 150.305 136.175 150.305 137.385Z" fill="white"/>
<path d="M145.09 156.641H148.298V158.023H143V156.641L145.661 154.293C145.899 154.078 146.075 153.868 146.188 153.663C146.302 153.458 146.359 153.245 146.359 153.023C146.359 152.681 146.244 152.406 146.013 152.198C145.785 151.99 145.48 151.885 145.1 151.885C144.807 151.885 144.486 151.948 144.138 152.076C143.789 152.2 143.417 152.385 143.02 152.633V151.031C143.443 150.891 143.861 150.785 144.274 150.714C144.688 150.639 145.093 150.601 145.49 150.601C146.363 150.601 147.04 150.793 147.521 151.177C148.007 151.562 148.249 152.097 148.249 152.784C148.249 153.181 148.146 153.552 147.941 153.897C147.736 154.239 147.305 154.698 146.647 155.274L145.09 156.641Z" fill="white"/>
<path d="M153.762 154.371C153.762 153.459 153.675 152.818 153.503 152.447C153.334 152.073 153.047 151.885 152.644 151.885C152.24 151.885 151.952 152.073 151.779 152.447C151.607 152.818 151.521 153.459 151.521 154.371C151.521 155.292 151.607 155.941 151.779 156.319C151.952 156.697 152.24 156.885 152.644 156.885C153.044 156.885 153.33 156.697 153.503 156.319C153.675 155.941 153.762 155.292 153.762 154.371ZM155.642 154.385C155.642 155.593 155.381 156.526 154.86 157.183C154.34 157.838 153.601 158.165 152.644 158.165C151.683 158.165 150.943 157.838 150.422 157.183C149.901 156.526 149.641 155.593 149.641 154.385C149.641 153.175 149.901 152.242 150.422 151.588C150.943 150.93 151.683 150.601 152.644 150.601C153.601 150.601 154.34 150.93 154.86 151.588C155.381 152.242 155.642 153.175 155.642 154.385Z" fill="white"/>
<rect x="81" y="78" width="16" height="18" fill="#6EA3E2"/>
<rect x="136" y="96" width="16" height="18" fill="#6EA3E2"/>
<rect x="87" y="95" width="16" height="18" fill="#6EA3E2"/>
<rect x="142" y="78" width="16" height="18" fill="#6EA3E2"/>
<rect x="137" y="128" width="16" height="18" fill="#66411A"/>
<rect x="84" y="147" width="16" height="18" fill="#66411A"/>
<rect x="142" y="150" width="16" height="18" fill="#66411A"/>
<rect x="88" y="132" width="16" height="18" fill="#66411A"/>
<path d="M85.068 90V88.392H81.3V86.856L84.636 81.624H86.796V87H87.876V88.392H86.796V90H85.068ZM82.752 87H85.068V83.484H84.96L82.752 87ZM94.4953 83.196H90.6193L90.4273 85.848H90.5353C90.6233 85.656 90.7233 85.48 90.8353 85.32C90.9473 85.152 91.0793 85.012 91.2313 84.9C91.3833 84.78 91.5593 84.688 91.7593 84.624C91.9593 84.56 92.1873 84.528 92.4433 84.528C92.7873 84.528 93.1113 84.588 93.4153 84.708C93.7273 84.828 93.9993 85.004 94.2313 85.236C94.4713 85.46 94.6593 85.74 94.7953 86.076C94.9313 86.404 94.9993 86.776 94.9993 87.192C94.9993 87.616 94.9273 88.008 94.7833 88.368C94.6393 88.728 94.4273 89.04 94.1473 89.304C93.8753 89.568 93.5353 89.776 93.1273 89.928C92.7193 90.072 92.2553 90.144 91.7353 90.144C91.3273 90.144 90.9633 90.1 90.6433 90.012C90.3233 89.924 90.0393 89.808 89.7913 89.664C89.5513 89.512 89.3393 89.34 89.1553 89.148C88.9793 88.948 88.8273 88.744 88.6993 88.536L90.0073 87.504C90.1033 87.664 90.2033 87.816 90.3073 87.96C90.4193 88.104 90.5433 88.232 90.6793 88.344C90.8233 88.448 90.9793 88.532 91.1473 88.596C91.3233 88.652 91.5233 88.68 91.7473 88.68C92.1953 88.68 92.5313 88.56 92.7553 88.32C92.9873 88.072 93.1033 87.744 93.1033 87.336V87.24C93.1033 86.848 92.9873 86.54 92.7553 86.316C92.5233 86.092 92.2033 85.98 91.7953 85.98C91.4593 85.98 91.1793 86.048 90.9553 86.184C90.7393 86.312 90.5753 86.44 90.4633 86.568L88.9873 86.364L89.2993 81.624H94.4953V83.196Z" fill="white"/>
<path d="M148.068 90V88.392H144.3V86.856L147.636 81.624H149.796V87H150.876V88.392H149.796V90H148.068ZM145.752 87H148.068V83.484H147.96L145.752 87ZM157.495 83.196H153.619L153.427 85.848H153.535C153.623 85.656 153.723 85.48 153.835 85.32C153.947 85.152 154.079 85.012 154.231 84.9C154.383 84.78 154.559 84.688 154.759 84.624C154.959 84.56 155.187 84.528 155.443 84.528C155.787 84.528 156.111 84.588 156.415 84.708C156.727 84.828 156.999 85.004 157.231 85.236C157.471 85.46 157.659 85.74 157.795 86.076C157.931 86.404 157.999 86.776 157.999 87.192C157.999 87.616 157.927 88.008 157.783 88.368C157.639 88.728 157.427 89.04 157.147 89.304C156.875 89.568 156.535 89.776 156.127 89.928C155.719 90.072 155.255 90.144 154.735 90.144C154.327 90.144 153.963 90.1 153.643 90.012C153.323 89.924 153.039 89.808 152.791 89.664C152.551 89.512 152.339 89.34 152.155 89.148C151.979 88.948 151.827 88.744 151.699 88.536L153.007 87.504C153.103 87.664 153.203 87.816 153.307 87.96C153.419 88.104 153.543 88.232 153.679 88.344C153.823 88.448 153.979 88.532 154.147 88.596C154.323 88.652 154.523 88.68 154.747 88.68C155.195 88.68 155.531 88.56 155.755 88.32C155.987 88.072 156.103 87.744 156.103 87.336V87.24C156.103 86.848 155.987 86.54 155.755 86.316C155.523 86.092 155.203 85.98 154.795 85.98C154.459 85.98 154.179 86.048 153.955 86.184C153.739 86.312 153.575 86.44 153.463 86.568L151.987 86.364L152.299 81.624H157.495V83.196Z" fill="white"/>
<path d="M85.068 159V157.392H81.3V155.856L84.636 150.624H86.796V156H87.876V157.392H86.796V159H85.068ZM82.752 156H85.068V152.484H84.96L82.752 156ZM94.4953 152.196H90.6193L90.4273 154.848H90.5353C90.6233 154.656 90.7233 154.48 90.8353 154.32C90.9473 154.152 91.0793 154.012 91.2313 153.9C91.3833 153.78 91.5593 153.688 91.7593 153.624C91.9593 153.56 92.1873 153.528 92.4433 153.528C92.7873 153.528 93.1113 153.588 93.4153 153.708C93.7273 153.828 93.9993 154.004 94.2313 154.236C94.4713 154.46 94.6593 154.74 94.7953 155.076C94.9313 155.404 94.9993 155.776 94.9993 156.192C94.9993 156.616 94.9273 157.008 94.7833 157.368C94.6393 157.728 94.4273 158.04 94.1473 158.304C93.8753 158.568 93.5353 158.776 93.1273 158.928C92.7193 159.072 92.2553 159.144 91.7353 159.144C91.3273 159.144 90.9633 159.1 90.6433 159.012C90.3233 158.924 90.0393 158.808 89.7913 158.664C89.5513 158.512 89.3393 158.34 89.1553 158.148C88.9793 157.948 88.8273 157.744 88.6993 157.536L90.0073 156.504C90.1033 156.664 90.2033 156.816 90.3073 156.96C90.4193 157.104 90.5433 157.232 90.6793 157.344C90.8233 157.448 90.9793 157.532 91.1473 157.596C91.3233 157.652 91.5233 157.68 91.7473 157.68C92.1953 157.68 92.5313 157.56 92.7553 157.32C92.9873 157.072 93.1033 156.744 93.1033 156.336V156.24C93.1033 155.848 92.9873 155.54 92.7553 155.316C92.5233 155.092 92.2033 154.98 91.7953 154.98C91.4593 154.98 91.1793 155.048 90.9553 155.184C90.7393 155.312 90.5753 155.44 90.4633 155.568L88.9873 155.364L89.2993 150.624H94.4953V152.196Z" fill="white"/>
<path d="M148.068 159V157.392H144.3V155.856L147.636 150.624H149.796V156H150.876V157.392H149.796V159H148.068ZM145.752 156H148.068V152.484H147.96L145.752 156ZM157.495 152.196H153.619L153.427 154.848H153.535C153.623 154.656 153.723 154.48 153.835 154.32C153.947 154.152 154.079 154.012 154.231 153.9C154.383 153.78 154.559 153.688 154.759 153.624C154.959 153.56 155.187 153.528 155.443 153.528C155.787 153.528 156.111 153.588 156.415 153.708C156.727 153.828 156.999 154.004 157.231 154.236C157.471 154.46 157.659 154.74 157.795 155.076C157.931 155.404 157.999 155.776 157.999 156.192C157.999 156.616 157.927 157.008 157.783 157.368C157.639 157.728 157.427 158.04 157.147 158.304C156.875 158.568 156.535 158.776 156.127 158.928C155.719 159.072 155.255 159.144 154.735 159.144C154.327 159.144 153.963 159.1 153.643 159.012C153.323 158.924 153.039 158.808 152.791 158.664C152.551 158.512 152.339 158.34 152.155 158.148C151.979 157.948 151.827 157.744 151.699 157.536L153.007 156.504C153.103 156.664 153.203 156.816 153.307 156.96C153.419 157.104 153.543 157.232 153.679 157.344C153.823 157.448 153.979 157.532 154.147 157.596C154.323 157.652 154.523 157.68 154.747 157.68C155.195 157.68 155.531 157.56 155.755 157.32C155.987 157.072 156.103 156.744 156.103 156.336V156.24C156.103 155.848 155.987 155.54 155.755 155.316C155.523 155.092 155.203 154.98 154.795 154.98C154.459 154.98 154.179 155.048 153.955 155.184C153.739 155.312 153.575 155.44 153.463 155.568L151.987 155.364L152.299 150.624H157.495V152.196Z" fill="white"/>
<path d="M77.66 107H71.636V105.356L74.276 103.16C74.732 102.768 75.06 102.428 75.26 102.14C75.46 101.852 75.56 101.548 75.56 101.228V101.108C75.56 100.756 75.456 100.492 75.248 100.316C75.04 100.132 74.76 100.04 74.408 100.04C74.008 100.04 73.7 100.156 73.484 100.388C73.268 100.62 73.116 100.896 73.028 101.216L71.456 100.616C71.552 100.328 71.684 100.056 71.852 99.8C72.02 99.536 72.232 99.308 72.488 99.116C72.752 98.924 73.056 98.772 73.4 98.66C73.744 98.54 74.14 98.48 74.588 98.48C75.044 98.48 75.452 98.544 75.812 98.672C76.172 98.8 76.476 98.976 76.724 99.2C76.972 99.424 77.16 99.692 77.288 100.004C77.416 100.308 77.48 100.64 77.48 101C77.48 101.352 77.42 101.676 77.3 101.972C77.188 102.26 77.028 102.532 76.82 102.788C76.62 103.044 76.38 103.292 76.1 103.532C75.828 103.772 75.536 104.012 75.224 104.252L73.628 105.488H77.66V107ZM84.8553 107H78.8313V105.356L81.4713 103.16C81.9273 102.768 82.2553 102.428 82.4553 102.14C82.6553 101.852 82.7553 101.548 82.7553 101.228V101.108C82.7553 100.756 82.6513 100.492 82.4433 100.316C82.2353 100.132 81.9553 100.04 81.6033 100.04C81.2033 100.04 80.8953 100.156 80.6793 100.388C80.4633 100.62 80.3113 100.896 80.2233 101.216L78.6513 100.616C78.7473 100.328 78.8793 100.056 79.0473 99.8C79.2153 99.536 79.4273 99.308 79.6833 99.116C79.9473 98.924 80.2513 98.772 80.5953 98.66C80.9393 98.54 81.3353 98.48 81.7833 98.48C82.2393 98.48 82.6473 98.544 83.0073 98.672C83.3673 98.8 83.6713 98.976 83.9193 99.2C84.1673 99.424 84.3553 99.692 84.4833 100.004C84.6113 100.308 84.6753 100.64 84.6753 101C84.6753 101.352 84.6153 101.676 84.4953 101.972C84.3833 102.26 84.2233 102.532 84.0153 102.788C83.8153 103.044 83.5753 103.292 83.2953 103.532C83.0233 103.772 82.7313 104.012 82.4193 104.252L80.8233 105.488H84.8553V107ZM88.9906 107.144C88.5426 107.144 88.2186 107.048 88.0186 106.856C87.8266 106.656 87.7306 106.42 87.7306 106.148V105.728C87.7306 105.456 87.8266 105.224 88.0186 105.032C88.2186 104.832 88.5426 104.732 88.9906 104.732C89.4386 104.732 89.7586 104.832 89.9506 105.032C90.1506 105.224 90.2506 105.456 90.2506 105.728V106.148C90.2506 106.42 90.1506 106.656 89.9506 106.856C89.7586 107.048 89.4386 107.144 88.9906 107.144ZM98.8859 100.196H95.0099L94.8179 102.848H94.9259C95.0139 102.656 95.1139 102.48 95.2259 102.32C95.3379 102.152 95.4699 102.012 95.6219 101.9C95.7739 101.78 95.9499 101.688 96.1499 101.624C96.3499 101.56 96.5779 101.528 96.8339 101.528C97.1779 101.528 97.5019 101.588 97.8059 101.708C98.1179 101.828 98.3899 102.004 98.6219 102.236C98.8619 102.46 99.0499 102.74 99.1859 103.076C99.3219 103.404 99.3899 103.776 99.3899 104.192C99.3899 104.616 99.3179 105.008 99.1739 105.368C99.0299 105.728 98.8179 106.04 98.5379 106.304C98.2659 106.568 97.9259 106.776 97.5179 106.928C97.1099 107.072 96.6459 107.144 96.1259 107.144C95.7179 107.144 95.3539 107.1 95.0339 107.012C94.7139 106.924 94.4299 106.808 94.1819 106.664C93.9419 106.512 93.7299 106.34 93.5459 106.148C93.3699 105.948 93.2179 105.744 93.0899 105.536L94.3979 104.504C94.4939 104.664 94.5939 104.816 94.6979 104.96C94.8099 105.104 94.9339 105.232 95.0699 105.344C95.2139 105.448 95.3699 105.532 95.5379 105.596C95.7139 105.652 95.9139 105.68 96.1379 105.68C96.5859 105.68 96.9219 105.56 97.1459 105.32C97.3779 105.072 97.4939 104.744 97.4939 104.336V104.24C97.4939 103.848 97.3779 103.54 97.1459 103.316C96.9139 103.092 96.5939 102.98 96.1859 102.98C95.8499 102.98 95.5699 103.048 95.3459 103.184C95.1299 103.312 94.9659 103.44 94.8539 103.568L93.3779 103.364L93.6899 98.624H98.8859V100.196Z" fill="#FFFBFB"/>
<path d="M146.66 107H140.636V105.356L143.276 103.16C143.732 102.768 144.06 102.428 144.26 102.14C144.46 101.852 144.56 101.548 144.56 101.228V101.108C144.56 100.756 144.456 100.492 144.248 100.316C144.04 100.132 143.76 100.04 143.408 100.04C143.008 100.04 142.7 100.156 142.484 100.388C142.268 100.62 142.116 100.896 142.028 101.216L140.456 100.616C140.552 100.328 140.684 100.056 140.852 99.8C141.02 99.536 141.232 99.308 141.488 99.116C141.752 98.924 142.056 98.772 142.4 98.66C142.744 98.54 143.14 98.48 143.588 98.48C144.044 98.48 144.452 98.544 144.812 98.672C145.172 98.8 145.476 98.976 145.724 99.2C145.972 99.424 146.16 99.692 146.288 100.004C146.416 100.308 146.48 100.64 146.48 101C146.48 101.352 146.42 101.676 146.3 101.972C146.188 102.26 146.028 102.532 145.82 102.788C145.62 103.044 145.38 103.292 145.1 103.532C144.828 103.772 144.536 104.012 144.224 104.252L142.628 105.488H146.66V107ZM153.855 107H147.831V105.356L150.471 103.16C150.927 102.768 151.255 102.428 151.455 102.14C151.655 101.852 151.755 101.548 151.755 101.228V101.108C151.755 100.756 151.651 100.492 151.443 100.316C151.235 100.132 150.955 100.04 150.603 100.04C150.203 100.04 149.895 100.156 149.679 100.388C149.463 100.62 149.311 100.896 149.223 101.216L147.651 100.616C147.747 100.328 147.879 100.056 148.047 99.8C148.215 99.536 148.427 99.308 148.683 99.116C148.947 98.924 149.251 98.772 149.595 98.66C149.939 98.54 150.335 98.48 150.783 98.48C151.239 98.48 151.647 98.544 152.007 98.672C152.367 98.8 152.671 98.976 152.919 99.2C153.167 99.424 153.355 99.692 153.483 100.004C153.611 100.308 153.675 100.64 153.675 101C153.675 101.352 153.615 101.676 153.495 101.972C153.383 102.26 153.223 102.532 153.015 102.788C152.815 103.044 152.575 103.292 152.295 103.532C152.023 103.772 151.731 104.012 151.419 104.252L149.823 105.488H153.855V107ZM157.991 107.144C157.543 107.144 157.219 107.048 157.019 106.856C156.827 106.656 156.731 106.42 156.731 106.148V105.728C156.731 105.456 156.827 105.224 157.019 105.032C157.219 104.832 157.543 104.732 157.991 104.732C158.439 104.732 158.759 104.832 158.951 105.032C159.151 105.224 159.251 105.456 159.251 105.728V106.148C159.251 106.42 159.151 106.656 158.951 106.856C158.759 107.048 158.439 107.144 157.991 107.144ZM167.886 100.196H164.01L163.818 102.848H163.926C164.014 102.656 164.114 102.48 164.226 102.32C164.338 102.152 164.47 102.012 164.622 101.9C164.774 101.78 164.95 101.688 165.15 101.624C165.35 101.56 165.578 101.528 165.834 101.528C166.178 101.528 166.502 101.588 166.806 101.708C167.118 101.828 167.39 102.004 167.622 102.236C167.862 102.46 168.05 102.74 168.186 103.076C168.322 103.404 168.39 103.776 168.39 104.192C168.39 104.616 168.318 105.008 168.174 105.368C168.03 105.728 167.818 106.04 167.538 106.304C167.266 106.568 166.926 106.776 166.518 106.928C166.11 107.072 165.646 107.144 165.126 107.144C164.718 107.144 164.354 107.1 164.034 107.012C163.714 106.924 163.43 106.808 163.182 106.664C162.942 106.512 162.73 106.34 162.546 106.148C162.37 105.948 162.218 105.744 162.09 105.536L163.398 104.504C163.494 104.664 163.594 104.816 163.698 104.96C163.81 105.104 163.934 105.232 164.07 105.344C164.214 105.448 164.37 105.532 164.538 105.596C164.714 105.652 164.914 105.68 165.138 105.68C165.586 105.68 165.922 105.56 166.146 105.32C166.378 105.072 166.494 104.744 166.494 104.336V104.24C166.494 103.848 166.378 103.54 166.146 103.316C165.914 103.092 165.594 102.98 165.186 102.98C164.85 102.98 164.57 103.048 164.346 103.184C164.13 103.312 163.966 103.44 163.854 103.568L162.378 103.364L162.69 98.624H167.886V100.196Z" fill="#FFFBFB"/>
<path d="M77.66 142H71.636V140.356L74.276 138.16C74.732 137.768 75.06 137.428 75.26 137.14C75.46 136.852 75.56 136.548 75.56 136.228V136.108C75.56 135.756 75.456 135.492 75.248 135.316C75.04 135.132 74.76 135.04 74.408 135.04C74.008 135.04 73.7 135.156 73.484 135.388C73.268 135.62 73.116 135.896 73.028 136.216L71.456 135.616C71.552 135.328 71.684 135.056 71.852 134.8C72.02 134.536 72.232 134.308 72.488 134.116C72.752 133.924 73.056 133.772 73.4 133.66C73.744 133.54 74.14 133.48 74.588 133.48C75.044 133.48 75.452 133.544 75.812 133.672C76.172 133.8 76.476 133.976 76.724 134.2C76.972 134.424 77.16 134.692 77.288 135.004C77.416 135.308 77.48 135.64 77.48 136C77.48 136.352 77.42 136.676 77.3 136.972C77.188 137.26 77.028 137.532 76.82 137.788C76.62 138.044 76.38 138.292 76.1 138.532C75.828 138.772 75.536 139.012 75.224 139.252L73.628 140.488H77.66V142ZM84.8553 142H78.8313V140.356L81.4713 138.16C81.9273 137.768 82.2553 137.428 82.4553 137.14C82.6553 136.852 82.7553 136.548 82.7553 136.228V136.108C82.7553 135.756 82.6513 135.492 82.4433 135.316C82.2353 135.132 81.9553 135.04 81.6033 135.04C81.2033 135.04 80.8953 135.156 80.6793 135.388C80.4633 135.62 80.3113 135.896 80.2233 136.216L78.6513 135.616C78.7473 135.328 78.8793 135.056 79.0473 134.8C79.2153 134.536 79.4273 134.308 79.6833 134.116C79.9473 133.924 80.2513 133.772 80.5953 133.66C80.9393 133.54 81.3353 133.48 81.7833 133.48C82.2393 133.48 82.6473 133.544 83.0073 133.672C83.3673 133.8 83.6713 133.976 83.9193 134.2C84.1673 134.424 84.3553 134.692 84.4833 135.004C84.6113 135.308 84.6753 135.64 84.6753 136C84.6753 136.352 84.6153 136.676 84.4953 136.972C84.3833 137.26 84.2233 137.532 84.0153 137.788C83.8153 138.044 83.5753 138.292 83.2953 138.532C83.0233 138.772 82.7313 139.012 82.4193 139.252L80.8233 140.488H84.8553V142ZM88.9906 142.144C88.5426 142.144 88.2186 142.048 88.0186 141.856C87.8266 141.656 87.7306 141.42 87.7306 141.148V140.728C87.7306 140.456 87.8266 140.224 88.0186 140.032C88.2186 139.832 88.5426 139.732 88.9906 139.732C89.4386 139.732 89.7586 139.832 89.9506 140.032C90.1506 140.224 90.2506 140.456 90.2506 140.728V141.148C90.2506 141.42 90.1506 141.656 89.9506 141.856C89.7586 142.048 89.4386 142.144 88.9906 142.144ZM98.8859 135.196H95.0099L94.8179 137.848H94.9259C95.0139 137.656 95.1139 137.48 95.2259 137.32C95.3379 137.152 95.4699 137.012 95.6219 136.9C95.7739 136.78 95.9499 136.688 96.1499 136.624C96.3499 136.56 96.5779 136.528 96.8339 136.528C97.1779 136.528 97.5019 136.588 97.8059 136.708C98.1179 136.828 98.3899 137.004 98.6219 137.236C98.8619 137.46 99.0499 137.74 99.1859 138.076C99.3219 138.404 99.3899 138.776 99.3899 139.192C99.3899 139.616 99.3179 140.008 99.1739 140.368C99.0299 140.728 98.8179 141.04 98.5379 141.304C98.2659 141.568 97.9259 141.776 97.5179 141.928C97.1099 142.072 96.6459 142.144 96.1259 142.144C95.7179 142.144 95.3539 142.1 95.0339 142.012C94.7139 141.924 94.4299 141.808 94.1819 141.664C93.9419 141.512 93.7299 141.34 93.5459 141.148C93.3699 140.948 93.2179 140.744 93.0899 140.536L94.3979 139.504C94.4939 139.664 94.5939 139.816 94.6979 139.96C94.8099 140.104 94.9339 140.232 95.0699 140.344C95.2139 140.448 95.3699 140.532 95.5379 140.596C95.7139 140.652 95.9139 140.68 96.1379 140.68C96.5859 140.68 96.9219 140.56 97.1459 140.32C97.3779 140.072 97.4939 139.744 97.4939 139.336V139.24C97.4939 138.848 97.3779 138.54 97.1459 138.316C96.9139 138.092 96.5939 137.98 96.1859 137.98C95.8499 137.98 95.5699 138.048 95.3459 138.184C95.1299 138.312 94.9659 138.44 94.8539 138.568L93.3779 138.364L93.6899 133.624H98.8859V135.196Z" fill="#FFFBFB"/>
<path d="M146.66 142H140.636V140.356L143.276 138.16C143.732 137.768 144.06 137.428 144.26 137.14C144.46 136.852 144.56 136.548 144.56 136.228V136.108C144.56 135.756 144.456 135.492 144.248 135.316C144.04 135.132 143.76 135.04 143.408 135.04C143.008 135.04 142.7 135.156 142.484 135.388C142.268 135.62 142.116 135.896 142.028 136.216L140.456 135.616C140.552 135.328 140.684 135.056 140.852 134.8C141.02 134.536 141.232 134.308 141.488 134.116C141.752 133.924 142.056 133.772 142.4 133.66C142.744 133.54 143.14 133.48 143.588 133.48C144.044 133.48 144.452 133.544 144.812 133.672C145.172 133.8 145.476 133.976 145.724 134.2C145.972 134.424 146.16 134.692 146.288 135.004C146.416 135.308 146.48 135.64 146.48 136C146.48 136.352 146.42 136.676 146.3 136.972C146.188 137.26 146.028 137.532 145.82 137.788C145.62 138.044 145.38 138.292 145.1 138.532C144.828 138.772 144.536 139.012 144.224 139.252L142.628 140.488H146.66V142ZM153.855 142H147.831V140.356L150.471 138.16C150.927 137.768 151.255 137.428 151.455 137.14C151.655 136.852 151.755 136.548 151.755 136.228V136.108C151.755 135.756 151.651 135.492 151.443 135.316C151.235 135.132 150.955 135.04 150.603 135.04C150.203 135.04 149.895 135.156 149.679 135.388C149.463 135.62 149.311 135.896 149.223 136.216L147.651 135.616C147.747 135.328 147.879 135.056 148.047 134.8C148.215 134.536 148.427 134.308 148.683 134.116C148.947 133.924 149.251 133.772 149.595 133.66C149.939 133.54 150.335 133.48 150.783 133.48C151.239 133.48 151.647 133.544 152.007 133.672C152.367 133.8 152.671 133.976 152.919 134.2C153.167 134.424 153.355 134.692 153.483 135.004C153.611 135.308 153.675 135.64 153.675 136C153.675 136.352 153.615 136.676 153.495 136.972C153.383 137.26 153.223 137.532 153.015 137.788C152.815 138.044 152.575 138.292 152.295 138.532C152.023 138.772 151.731 139.012 151.419 139.252L149.823 140.488H153.855V142ZM157.991 142.144C157.543 142.144 157.219 142.048 157.019 141.856C156.827 141.656 156.731 141.42 156.731 141.148V140.728C156.731 140.456 156.827 140.224 157.019 140.032C157.219 139.832 157.543 139.732 157.991 139.732C158.439 139.732 158.759 139.832 158.951 140.032C159.151 140.224 159.251 140.456 159.251 140.728V141.148C159.251 141.42 159.151 141.656 158.951 141.856C158.759 142.048 158.439 142.144 157.991 142.144ZM167.886 135.196H164.01L163.818 137.848H163.926C164.014 137.656 164.114 137.48 164.226 137.32C164.338 137.152 164.47 137.012 164.622 136.9C164.774 136.78 164.95 136.688 165.15 136.624C165.35 136.56 165.578 136.528 165.834 136.528C166.178 136.528 166.502 136.588 166.806 136.708C167.118 136.828 167.39 137.004 167.622 137.236C167.862 137.46 168.05 137.74 168.186 138.076C168.322 138.404 168.39 138.776 168.39 139.192C168.39 139.616 168.318 140.008 168.174 140.368C168.03 140.728 167.818 141.04 167.538 141.304C167.266 141.568 166.926 141.776 166.518 141.928C166.11 142.072 165.646 142.144 165.126 142.144C164.718 142.144 164.354 142.1 164.034 142.012C163.714 141.924 163.43 141.808 163.182 141.664C162.942 141.512 162.73 141.34 162.546 141.148C162.37 140.948 162.218 140.744 162.09 140.536L163.398 139.504C163.494 139.664 163.594 139.816 163.698 139.96C163.81 140.104 163.934 140.232 164.07 140.344C164.214 140.448 164.37 140.532 164.538 140.596C164.714 140.652 164.914 140.68 165.138 140.68C165.586 140.68 165.922 140.56 166.146 140.32C166.378 140.072 166.494 139.744 166.494 139.336V139.24C166.494 138.848 166.378 138.54 166.146 138.316C165.914 138.092 165.594 137.98 165.186 137.98C164.85 137.98 164.57 138.048 164.346 138.184C164.13 138.312 163.966 138.44 163.854 138.568L162.378 138.364L162.69 133.624H167.886V135.196Z" fill="#FFFBFB"/>
</svg>
